<svg width="505" height="501" viewBox="0 0 505 501" fill="none" xmlns="http://www.w3.org/2000/svg">
<path fill-rule="evenodd" clip-rule="evenodd" d="M220.036 1.40006C215.911 2.10006 210.736 2.96406 208.536 3.32006C200.345 4.64606 193.008 6.46505 178.036 10.8831C168.943 13.5671 164.602 15.0281 154.536 18.7931C142.129 23.4341 114.69 39.2231 100.036 50.1531C84.3373 61.8611 63.5323 82.154 53.6183 95.427C50.3633 99.785 46.4263 105.011 44.8683 107.041C43.3103 109.072 42.0363 110.962 42.0363 111.241C42.0363 111.521 40.7373 113.685 39.1483 116.05C31.4513 127.512 21.8803 146.776 16.1443 162.35C9.52527 180.321 6.39126 193.215 3.50526 214.35C-1.08774 247.998 -1.11174 252.323 3.10826 286.35C4.48426 297.447 6.71428 307.696 11.1583 323.35C12.5453 328.237 17.0343 341.023 18.6973 344.823C19.5463 346.763 20.5943 349.25 21.0283 350.35C22.2543 353.464 30.9983 370.843 33.8573 375.85C55.4283 413.623 90.6633 448.96 128.66 470.927C149.613 483.041 175.917 492.959 200.086 497.86C224.705 502.852 228.867 501.913 227.745 491.615C226.181 477.25 214.775 451.525 203.465 436.85C189.172 418.305 166.665 402.553 146.536 397.007C144.336 396.401 138.936 394.893 134.536 393.657C127.27 391.615 124.472 391.416 104.036 391.49C86.8263 391.553 80.0083 391.954 75.0363 393.196C71.4613 394.09 67.7633 394.827 66.8183 394.835C61.0863 394.885 36.2763 350.747 28.0423 325.85C25.5483 318.306 24.2583 313.704 21.0403 300.85C18.4593 290.547 16.5363 269.193 16.5363 250.85C16.5363 209.173 24.5273 176.177 43.1333 141.017C62.2153 104.961 87.6013 76.4171 120.036 54.5481C140.184 40.9631 177.323 25.1481 200.053 20.4751C234.144 13.4651 282.592 14.3131 313.036 22.4531C332.4 27.6301 360.325 39.2511 374.48 48.0241C408.36 69.0211 429.031 88.533 449.128 118.487C455.12 127.417 470.036 154.954 470.036 157.084C470.036 157.517 470.904 159.779 471.964 162.111C476.151 171.316 482.498 192.784 484.896 205.85C485.451 208.875 486.385 213.747 486.971 216.676C488.292 223.28 488.392 276.866 487.097 283.524C486.58 286.178 485.632 291.5 484.989 295.35C483.758 302.727 478.649 321.235 475.051 331.35C468.916 348.598 446.881 388.584 440.672 393.737C439.37 394.818 437.666 394.749 430.817 393.338C424.486 392.034 417.473 391.638 401.036 391.656C380.84 391.679 378.96 391.842 370.036 394.342C364.811 395.806 359.636 397.232 358.536 397.51C356.04 398.143 354.654 398.732 343.702 403.813C323.141 413.352 303.663 430.215 293.414 447.35C288.44 455.666 282.955 467.582 281.102 474.1C280.516 476.163 279.57 479.388 279.001 481.269C278.431 483.149 277.914 487.718 277.85 491.422C277.698 500.352 278.793 501.24 289.036 500.492C311.242 498.872 353.356 484.723 378.036 470.592C398.257 459.014 410.047 449.872 428.614 431.375C442.914 417.128 449.22 409.698 459.188 395.35C480.885 364.118 496.097 326.475 502.224 288.85C505.401 269.336 505.394 238.493 502.206 216.85C498.783 193.612 493.384 172.701 486.103 154.473C469.162 112.067 434.803 69.7871 396.365 44.0461C391.32 40.6681 385.583 36.9921 383.615 35.8771C381.646 34.7621 378.382 32.9131 376.36 31.7681C370.625 28.5201 357.375 21.8501 356.659 21.8501C356.304 21.8501 354.107 21.0021 351.775 19.9651C331.59 10.9891 301.92 3.10406 279.825 0.844059C266.567 -0.512941 229.269 -0.165942 220.036 1.40006ZM243.536 103.509C235.391 107.795 232.036 113.439 232.036 122.856C232.036 128.156 232.506 130.244 234.286 132.859C239.904 141.111 249.21 145.181 257.288 142.919C266.595 140.314 272.97 132.063 273.014 122.568C273.069 110.687 263.887 101.795 251.664 101.89C248.844 101.912 245.186 102.641 243.536 103.509ZM190.21 126.164C189.014 127.437 188.036 129.331 188.036 130.373C188.036 131.518 198.914 143.171 215.536 159.832C230.661 174.993 243.036 187.842 243.036 188.387C243.036 188.931 241.527 191.621 239.683 194.363C233.19 204.019 224.394 222.377 221.962 231.35C221.515 233 220.664 236.15 220.072 238.35C216.421 251.918 215.158 270.549 217.061 282.768C220.317 303.684 223.814 313.916 234.132 332.733C237.173 338.278 250.18 351.85 252.454 351.85C256.749 351.85 270.634 333.828 277.522 319.311C285.461 302.582 288.027 289.853 288.032 267.165C288.039 241.092 281.862 220.712 266.613 196.492C263.546 191.62 261.036 187.215 261.036 186.704C261.036 186.192 272.849 173.844 287.286 159.265C304.501 141.881 313.643 131.933 313.847 130.364C314.224 127.457 310.91 123.85 307.862 123.85C306.353 123.85 297.328 132.174 278.354 151.068L251.02 178.285L223.736 151.068C205.935 133.309 195.745 123.85 194.418 123.85C193.3 123.85 191.406 124.892 190.21 126.164ZM120.531 169.1C117.938 176.434 116.991 212.6 119.081 224.433C123.148 247.446 125.507 255.548 132.309 269.85C142.698 291.697 164.037 316.424 183.972 329.719C198.16 339.18 222.181 350.114 224.98 348.385C225.545 348.036 224.204 344.9 221.85 341.062C216.036 331.586 208.245 313.026 205.404 301.879C200.504 282.66 200.205 258.812 204.593 237.13L206.256 228.91L201.218 222.63C195.636 215.671 182.254 202.393 174.536 196.153C163.043 186.863 145.873 177.137 129.114 170.423C121.774 167.483 121.138 167.384 120.531 169.1ZM375.428 170.33C367.238 173.404 347.96 183.261 340.536 188.17C328.223 196.312 314.922 208.95 305.339 221.61C299.169 229.762 299.528 226.846 302.044 248.35C303.779 263.184 302.762 290.231 300.089 300.35C296.059 315.604 288.732 332.749 281.846 343.045C279.75 346.177 278.036 348.99 278.036 349.295C278.036 350.451 280.788 349.76 288.536 346.658C318.193 334.785 345.386 312.616 363.911 285.21C372.769 272.106 380.973 252.171 384.48 235.228C388.177 217.372 388.369 175.558 384.78 169.812C383.298 167.438 383.105 167.449 375.428 170.33ZM58.0673 269.1C58.1303 271.583 65.6423 285.407 72.2913 295.272C78.2623 304.131 96.1803 321.502 106.036 327.988C121.03 337.854 136.407 344.712 151.557 348.29C165.02 351.469 167.502 351.963 184.47 354.843C198.413 357.21 199.005 355.471 186.718 348.239C166.56 336.374 145.286 317.13 130.32 297.221C122.663 287.036 122.554 286.937 114.536 283.005C103.129 277.412 94.5493 274.31 81.0363 270.894C68.2283 267.657 58.0113 266.859 58.0673 269.1ZM433.536 268.812C431.886 269.242 427.836 270.157 424.536 270.846C417.884 272.236 407.485 275.424 404.8 276.897C403.845 277.421 402.594 277.85 402.021 277.85C401.448 277.85 397.572 279.467 393.408 281.443C385.763 285.07 378.567 291.15 373.986 297.85C370.424 303.06 365.789 308.195 354.085 319.896C340.106 333.871 327.594 343.131 311.609 351.335C299.599 357.498 313.863 357.355 344.036 351.01C382.205 342.984 414.57 321.768 434.838 291.488C440.199 283.479 447.036 270.804 447.036 268.875C447.036 267.69 438.006 267.647 433.536 268.812ZM134.036 408.856C148.812 412.474 168.548 423.091 180.404 433.802C184.47 437.474 196.036 451.211 196.036 452.367C196.036 452.738 196.886 454.236 197.925 455.696C200.923 459.908 206.291 470.928 205.655 471.564C205.337 471.882 201.801 469.039 197.797 465.246C179.076 447.512 151.391 431.242 136.433 429.183C133.011 428.712 131.973 429.001 130.183 430.923C129.002 432.19 128.036 433.982 128.036 434.904C128.036 436.799 131.706 441.85 133.083 441.85C133.579 441.85 139.509 444.517 146.26 447.777C161.59 455.179 174.331 463.587 184.036 472.707C190.369 478.659 191.174 479.763 189.212 479.803C184.367 479.901 158.098 469.931 146.705 463.668C142.885 461.568 139.577 459.85 139.355 459.85C138.74 459.85 114.846 443.8 113.517 442.494C112.877 441.865 110.861 440.225 109.038 438.85C99.8163 431.895 78.0363 411.092 78.0363 409.24C78.0363 408.514 79.6903 407.671 81.7863 407.329C83.8493 406.992 86.2113 406.541 87.0363 406.326C87.8613 406.11 96.8613 406.123 107.036 406.355C121.284 406.679 127.49 407.254 134.036 408.856ZM426.286 407.436C427.799 407.792 429.036 408.398 429.036 408.783C429.036 409.892 418.287 420.663 409.022 428.836C404.355 432.954 400.311 436.588 400.036 436.913C399.047 438.082 380.346 451.85 379.748 451.85C379.412 451.85 377.201 453.15 374.836 454.739C366.142 460.58 347.949 469.782 339.036 472.848C337.111 473.51 334.636 474.405 333.536 474.837C332.436 475.269 329.511 476.17 327.036 476.84C324.561 477.51 321.502 478.461 320.239 478.954C318.976 479.447 316.768 479.85 315.334 479.85C312.768 479.85 312.756 479.817 314.582 477.799C317.415 474.668 333.676 462.609 341.536 457.809C345.386 455.459 352.811 451.55 358.036 449.124C373.394 441.993 376.116 440.481 378.128 437.965C380.602 434.872 380.542 434.265 377.456 431.18C375.192 428.915 374.325 428.676 370.355 429.22C363.878 430.108 358.655 432.049 346.062 438.249C335.276 443.56 321.115 452.437 316.036 457.07C314.661 458.325 311.061 461.374 308.036 463.846C305.011 466.318 301.881 468.966 301.081 469.729C298.525 472.167 298.745 469.221 301.535 463.637C306.864 452.971 321.322 436.158 332.036 428.168C344.147 419.135 363.362 410.762 379.977 407.278C386.634 405.882 420.172 405.996 426.286 407.436Z" fill="#283B29"/>
</svg>
