<svg width="739" height="150" viewBox="0 0 739 150" fill="none" xmlns="http://www.w3.org/2000/svg">
<path fill-rule="evenodd" clip-rule="evenodd" d="M364.127 4.478C361.857 6.94 360 9.358 360 9.85C360 10.343 362.033 12.619 364.518 14.91L369.036 19.074L372.566 16.382C377.085 12.935 378.377 10.572 377.073 8.137C376.181 6.47 369.438 0 368.593 0C368.407 0 366.397 2.015 364.127 4.478ZM444 1.125C444 1.641 444.935 4.839 446.078 8.231C447.221 11.624 448.412 18.359 448.726 23.2L449.296 32H341.799C282.675 32 230.915 32.286 226.775 32.636L219.248 33.273L222.748 39.148C226.407 45.29 227.258 45.783 235 46.236L239.5 46.5L240.305 65.385C240.748 75.771 240.888 84.849 240.616 85.558C240.021 87.109 230.582 94.185 223.059 98.72C219.28 100.998 216.378 101.999 213.559 101.996C208.984 101.992 203.726 99.225 201.935 95.879C199.857 91.995 201.553 82.19 206.693 68.377C212.892 51.716 212.997 48.053 207.542 38.75L203.584 32L170.042 32.011C151.594 32.017 134.821 32.3 132.769 32.639L129.039 33.255L131.269 36.916C136.224 45.047 136.571 45.316 143.036 46.079C146.388 46.474 149.422 47.089 149.779 47.446C150.98 48.647 151.266 79.326 150.115 83.585C149.176 87.062 147.858 88.495 141.256 93.214C136.99 96.263 132.06 99.487 130.3 100.379C126.3 102.405 120.786 102.458 117.011 100.506C108.803 96.261 108.915 88.17 117.491 66C122.381 53.355 122.682 50.169 119.616 43.473C118.213 40.408 116.119 36.572 114.964 34.95L112.864 32H56.432C25.394 32 0 32.24 0 32.533C0 33.795 4.97099 42.731 6.27499 43.813C7.20599 44.586 14.566 45.231 27.353 45.659C42.172 46.155 47 46.627 47 47.581C47 48.276 42.613 50.513 37.25 52.552C31.887 54.591 24.951 57.37 21.836 58.728C16.24 61.166 16.185 61.231 17.212 64.177C17.783 65.817 18.882 67.401 19.653 67.697C20.423 67.993 25.29 66.83 30.467 65.113C35.644 63.397 43.182 61.479 47.218 60.851C53.886 59.815 54.976 59.896 59.137 61.737L63.718 63.763L64.419 70.879C64.805 74.793 64.841 78.449 64.498 79.003C64.129 79.601 62.172 78.851 59.688 77.16C52.538 72.293 46.412 70.5 36.929 70.5C29.376 70.5 27.663 70.856 22.496 73.5C8.871 80.473 4.91299 95.05 13.568 106.385C17.747 111.858 20.962 113.678 29.673 115.501C39.369 117.529 49.352 115.341 66.598 107.408C67.203 107.13 70.002 108.724 72.819 110.951C75.636 113.178 78.179 115 78.471 115C78.762 115 79 103.85 79 90.222C79 61.186 79.213 61.85 67.415 54.064C56.204 46.664 56.5 46.541 86.25 46.233C100.869 46.082 112 46.352 112 46.858C112 47.349 109.486 53.094 106.414 59.625C93.632 86.799 92.886 96.208 102.653 107.05C112.761 118.271 125.982 117.82 144.072 105.637C147.043 103.637 149.886 102 150.389 102C150.929 102 151.065 107.951 150.719 116.484C150.067 132.561 149.306 134.881 143.341 138.969C141.106 140.5 137.94 141.506 134.447 141.796C127.475 142.374 121.322 139.488 111.173 130.876L103.846 124.66L101.41 127.58C96.499 133.465 96.506 133.563 102.165 138.036C114.03 147.415 127.337 150.822 142.39 148.336C147.646 147.467 157.773 140.48 161.478 135.165L164.5 130.83L165 88.997C165.275 65.988 165.735 46.929 166.022 46.643C166.985 45.683 191.592 44.719 197.206 45.42L202.754 46.113L196.461 59.807C188.455 77.228 185.998 84.615 186.01 91.218C186.034 104.515 197.328 115.92 210.528 115.978C215.962 116.002 226.079 111.794 234.473 106.018C236.886 104.358 239.375 103 240.004 103C240.634 103 243.788 105.518 247.015 108.596C250.242 111.673 253.358 113.897 253.941 113.537C254.645 113.102 255 103.724 255 85.588C255 70.576 255.289 55.527 255.642 52.147L256.285 46H282.061C296.237 46 308.548 46.273 309.418 46.607C310.288 46.941 311 48.178 311 49.357C311 51.357 310.5 51.5 303.519 51.5C296.402 51.5 295.879 51.659 292.769 54.771C289.868 57.674 289.506 58.647 289.551 63.419C289.638 72.647 295.299 78.148 314.71 87.87C323.311 92.178 325.328 94.352 324.812 98.754C324.568 100.826 323.292 102.045 319 104.305C313.828 107.028 312.955 107.173 304.352 106.745C294.664 106.262 289.736 104.316 286.499 99.695C282.87 94.513 286.437 87.218 293.406 85.571C295.902 84.98 296.114 84.685 294.906 83.479C292.834 81.409 280.958 78.543 277.769 79.343C274.234 80.23 271.218 83.542 269.881 88.004C267.389 96.322 273.777 106.135 285.361 111.783C294.767 116.369 299.535 117.278 311.722 116.805C324.37 116.315 330.512 114.132 336.498 108.002C339.572 104.854 340.369 103.212 340.75 99.245C341.189 94.684 340.998 94.175 337.86 91.514C336.012 89.947 329.039 86.076 322.364 82.913C305.574 74.956 299.057 67.921 303.701 62.77C305.276 61.024 306.371 60.843 312.5 61.316C316.35 61.613 320.494 62.161 321.708 62.534C323.848 63.191 323.925 62.956 324.208 54.856L324.5 46.5L342.595 46.228L360.69 45.956L361.345 58.135C361.705 64.833 362 77.569 362 86.436V102.558L368.305 108.807C371.773 112.244 374.923 114.744 375.305 114.361C375.687 113.979 376 101.208 376 85.98C376 70.752 376.289 55.527 376.642 52.147L377.285 46H413.142H449V55C449 59.95 448.723 64 448.384 64C448.046 64 444.713 61.968 440.977 59.485C430.84 52.746 425.64 50.741 418.049 50.647C410.24 50.55 405.218 52.803 399.748 58.857C395.236 63.851 394.013 68.171 394.006 79.135C393.998 90.162 395.992 96.347 401.926 103.713C412.775 117.181 432.203 120.59 449.521 112.064C456.879 108.442 457.158 108.412 459.5 111C460.495 112.1 461.662 113 462.093 113C462.524 113 463.016 98.187 463.188 80.082C463.36 61.977 463.875 46.79 464.334 46.332C465.271 45.397 534.552 45.218 535.482 46.149C535.81 46.477 535.948 50.877 535.789 55.928L535.5 65.11L530 60.994C512.194 47.668 497.503 46.953 486.722 58.886C472.586 74.533 481.77 105.977 502.853 114.112C513.927 118.386 524.515 117.676 537.269 111.803L544.038 108.687L546.333 110.843C547.596 112.029 548.937 113 549.314 113C549.692 113 550 98.637 550 81.082C550 63.527 550.273 48.452 550.607 47.582C551.104 46.287 553.005 46 561.072 46C569.794 46 571.049 46.223 571.965 47.934C572.603 49.127 573 59.965 573 76.213V102.558L579.277 108.779C582.729 112.2 585.879 115 586.277 115C586.675 115 587 107.428 587 98.174C587 82.009 587.088 81.267 589.25 79.267C594.419 74.483 606.841 66.812 611.706 65.397C616.465 64.013 617.25 64.025 620.41 65.524C629.158 69.675 629.754 78.437 622.542 96.892C620.594 101.878 619 107.238 619 108.804C619 112.134 623.123 116.551 625.411 115.672C627.554 114.85 640.668 87.918 641.963 81.679C644.101 71.379 640.202 61.056 631.902 55.044C621.277 47.347 611.576 48.453 595.77 59.165C586.538 65.421 586.875 65.57 587.209 55.373L587.5 46.5L635.5 46.207C686.195 45.898 692.926 46.179 690.984 48.52C690.355 49.278 688.189 50.431 686.17 51.083C680.208 53.009 662.565 60.09 661.737 60.889C660.541 62.045 663.023 68 664.7 68C665.528 68 670.144 66.68 674.958 65.067C684.476 61.879 698.563 59.535 701.598 60.636C707.107 62.633 708.786 64.852 709.51 71.089C709.926 74.67 709.821 77.579 709.257 78.143C708.643 78.757 705.804 77.802 701.387 75.495C684.194 66.513 665.306 69.564 656.999 82.663C653.258 88.561 652.43 92.892 653.981 98.434C657.396 110.629 671.832 118.335 686.795 115.95C693.785 114.836 695.126 114.404 704.313 110.312L712.126 106.831L716.753 110.435C719.298 112.418 721.857 113.881 722.44 113.687C723.64 113.288 724.503 75.33 723.476 68.172C722.7 62.772 717.997 57.318 710.439 53.052C704.976 49.97 703.64 47.736 706.582 46.607C707.452 46.273 714.85 46 723.023 46C731.195 46 738.098 45.65 738.362 45.223C738.627 44.795 737.416 41.758 735.671 38.473L732.5 32.5L660.004 32L587.509 31.5L586.654 27C584.682 16.614 582.832 11.82 579.278 7.886C575.675 3.898 568.328 -0.661 567.247 0.42C566.939 0.728 567.426 2.672 568.329 4.74C570.801 10.399 571.948 16.698 571.976 24.75L572 32H561.519C549.791 32 550.974 32.834 549.471 23.5C547.938 13.979 540.59 3.696 533.354 0.944C529.929 -0.358 529.529 0.189 531.342 3.694C533.362 7.601 536 20.775 536 26.958V32H501.071C472.074 32 465.899 31.757 464.709 30.566C463.92 29.778 462.973 26.854 462.604 24.07C461.576 16.319 458.744 10.855 453.153 5.827C448.206 1.38 444 -0.781 444 1.125ZM430.392 68.578C433.414 70.108 438.837 73.527 442.443 76.175L449 80.99L448.985 90.245C448.977 95.544 448.442 100.569 447.735 102C447.056 103.375 444.025 105.772 441 107.326C436.511 109.633 434.639 110.056 430.818 109.631C418.329 108.242 407.66 96.489 406.349 82.675C405.395 72.629 412.54 64.291 421.199 65.346C423.233 65.593 427.37 67.048 430.392 68.578ZM512.339 66.457C516.703 68.013 526.682 73.925 532.25 78.253L536 81.168L535.985 90.334C535.977 95.562 535.44 100.574 534.735 102C534.056 103.375 531.025 105.772 528 107.326C523.511 109.633 521.639 110.056 517.818 109.631C505.072 108.213 495.039 97.236 493.469 82.991C492.702 76.027 495.692 69.594 500.984 66.824C505.088 64.676 507.157 64.609 512.339 66.457ZM53.011 85.004C62.71 88.827 65.777 92.199 63.701 96.756C61.452 101.694 43.616 107.65 34.022 106.668C29.45 106.2 28.007 105.553 25.636 102.908C23.145 100.13 22.838 99.131 23.276 95.243C23.954 89.225 26.683 85.851 32.581 83.738C38.466 81.629 45.565 82.069 53.011 85.004ZM691.201 83.109C698.677 84.673 707.891 89.716 708.626 92.647C709.458 95.961 708.555 97.689 704.784 100.002C695.777 105.525 681.646 108.358 674.641 106.047C666.473 103.351 665.576 91.348 673.123 85.746C677.762 82.303 683.41 81.479 691.201 83.109Z" fill="#283B29"/>
</svg>
